<?xml version="1.0" standalone="no"?><!DOCTYPE svg PUBLIC "-//W3C//DTD SVG 1.1//EN" "http://www.w3.org/Graphics/SVG/1.1/DTD/svg11.dtd"><svg t="1563785466473" class="icon" viewBox="0 0 1024 1024" version="1.1" xmlns="http://www.w3.org/2000/svg" p-id="5844" xmlns:xlink="http://www.w3.org/1999/xlink" width="200" height="200"><defs><style type="text/css"></style></defs><path d="M256.88064 220.84266667l-9.72572445 5.72074666c-1.71576889 1.14574222-3.43381333 2.28807111-4.00270222 4.00270222s0 8.01109333 0 10.2968889c0.57116445 7.43765333 0.57116445 16.5888-5.72074666 21.73610666-5.72074667 4.57614222-13.15498667 2.85923555-18.87573334-0.57116444l-4.57614222-2.28807112v-5.14844444c0-4.00270222 0.57116445-7.43765333 0.57116444-10.86805333 0-6.29304889-6.86307555-6.86307555-12.01379555-6.86307556-4.57614222 0-8.57884445 0.57116445-13.15498667 1.14574223-4.57614222 0.57116445-9.15114667 1.71576889-13.15498666-1.14574223-5.14844445-3.43381333-5.72074667-9.72572445-5.72074667-15.44305777 0-1.71576889 0.57116445-3.43381333 1.14574222-4.57614223 3.43381333-6.29304889 9.72572445-5.72074667 15.44305778-6.86307555 8.01109333-1.14574222 16.01649778-1.14574222 24.02417778-1.71576889 14.29845333-1.14574222 21.16494222-6.29304889 33.17873777-12.58496 4.00270222-2.28807111 6.86307555-4.57614222 12.01379556-4.57614223 7.43765333 0 13.15498667 9.72572445 13.15498667 16.5888 0.57116445 7.43765333-6.86307555 10.29688889-12.58496 13.15498667v0zM137.90208 295.77784889c0 1.14574222 0.57116445 2.28807111 0.57116445 4.00270222 0 2.85923555 0 5.14844445 0 8.01109334-0.57116445 7.43765333-2.85923555 16.5888-12.01379556 16.5888-5.72074667 0-11.43921778-1.14574222-13.72842667-6.86307556-2.28807111-4.57614222 0-12.01379555-1.14574222-13.15498667-1.14574222-1.14574222-6.86307555-0.57116445-8.57884445-0.57116444-5.14844445 0.57116445-12.01379555 1.71576889-17.16224 0.57116444l-5.14844444-1.14574222-1.14574222-5.14844445c-0.57116445-3.43381333-1.71576889-5.14844445-1.71576889-8.57884444v0c0-2.28807111 0.57116445-4.57614222 2.28807111-6.86307556 2.85923555-4.00270222 6.86307555-4.00270222 11.43921778-4.57614222 17.73112889-2.28807111 20.02147555 1.14574222 37.18144-7.43765333 4.00270222-2.28807111 11.43921778-7.43765333 16.01649778-7.43765333 7.43765333 0 13.15498667 8.01109333 13.15498666 15.44305778 0 8.01109333-8.57884445 11.43921778-14.87303111 14.29845333-0.57116445 0-4.00270222 1.71576889-5.14844444 2.85923555z" p-id="5845"></path><path d="M243.15221333 741.95171555c-6.86307555 0-13.72842667-4.00270222-17.73112888-10.29688888-27.45685333-49.19296-41.75644445-104.67896889-41.75644445-161.30844445 0-182.47338667 148.15345778-330.62798222 330.62798222-330.62798222s330.62798222 148.15345778 330.62798223 330.62798222c0 48.04835555-10.29688889 94.38435555-29.74378667 137.85656889-4.57614222 10.29688889-16.5888 14.87303111-26.88682667 9.72572444-10.29688889-4.57614222-14.87303111-16.5888-9.72572444-26.88682666 17.16224-37.75374222 26.31224889-78.36785778 26.31224888-120.69432889 0-159.59381333-129.84888889-290.01272889-290.01272888-290.01272889-159.59381333 0-290.01272889 129.84888889-290.01272889 290.01272889 0 49.76753778 12.58496 98.38705778 36.60686222 141.28696889 5.72074667 9.72572445 1.71576889 22.30840889-8.01109333 27.45685333-3.43381333 2.28807111-6.86307555 2.85923555-10.29688889 2.85923556z" p-id="5846"></path><path d="M816.88576 521.72572445c-11.43921778 0-20.02147555-9.15114667-20.02147555-20.02147556v-362.65756444c0-8.01109333 4.57614222-14.87303111 11.43921777-18.30684445s15.44305778-2.28807111 21.73610667 2.85923555l109.25511111 89.23477334c8.57884445 6.86307555 9.72572445 20.02147555 2.85923555 28.60259556s-20.02147555 9.72572445-28.60259555 2.85923555l-76.07637333-62.34908445v319.18535112c-0.57116445 11.43921778-9.72572445 20.59150222-20.59150222 20.59150222z" p-id="5847"></path><path d="M404.46179555 625.26008889c-5.14844445 0-10.29688889-1.71576889-14.29845333-5.72074667l-56.05717333-55.48373333c-8.01109333-8.01109333-8.01109333-20.59150222 0-28.60259556s20.59150222-8.01109333 28.60259556 0l56.05717333 55.48373334c8.01109333 8.01109333 8.01109333 20.59150222 0 28.60259555-4.00270222 3.43381333-9.15114667 5.72074667-14.29845333 5.72074667z" p-id="5848"></path><path d="M351.83616 626.40355555c-5.14844445 0-10.29688889-1.71576889-13.72842667-5.72074666-8.01109333-7.43765333-8.57884445-20.59150222-0.57116444-28.60259556l54.34368-57.20177778c7.43765333-8.01109333 20.59150222-8.57884445 28.60259556-0.57116444 8.01109333 7.43765333 8.57884445 20.59150222 0.57116444 28.60259556l-54.91484444 57.77408c-3.43381333 4.00270222-8.57884445 5.72074667-14.29845334 5.72074666z" p-id="5849"></path><path d="M673.30844445 625.26008889c-5.14844445 0-10.29688889-1.71576889-14.29845334-5.72074667l-56.05717333-55.48373333c-8.01109333-8.01109333-8.01109333-20.59150222 0-28.60259556s20.59150222-8.01109333 28.60259555 0l56.05717334 55.48373334c8.01109333 8.01109333 8.01109333 20.59150222 0 28.60259555-3.43381333 3.43381333-9.15114667 5.72074667-14.29845334 5.72074667z" p-id="5850"></path><path d="M621.25511111 626.40355555c-5.14844445 0-10.29688889-1.71576889-13.72842666-5.72074666-8.01109333-7.43765333-8.57884445-20.59150222-0.57116445-28.60259556l54.91484445-57.77408c7.43765333-8.01109333 20.59150222-8.57884445 28.60259555-0.57116444 8.01109333 7.43765333 8.57884445 20.59150222 0.57116445 28.60259556l-54.91484445 57.77408c-4.57614222 4.57614222-9.72572445 6.29304889-14.87303111 6.29304888z" p-id="5851"></path><path d="M137.90208 822.03420445c-13.15498667 0-25.74108445-9.15114667-44.04679111-24.59534223-8.01109333-6.86307555-16.01649778-10.29688889-23.45301334-9.15114667-8.57884445 1.14574222-17.16224 6.86307555-24.59534222 17.16224-6.29304889 9.15114667-19.44803555 10.86805333-28.02801778 4.57614223-9.15114667-6.29304889-10.86805333-19.44803555-4.57614222-28.02801778 14.29845333-19.44803555 32.60529778-31.46069333 52.62677334-33.74990222 13.15498667-1.71576889 33.17873778 0.57116445 54.91484444 18.87573333 8.01109333 6.86307555 14.29845333 12.01379555 17.73112889 13.72842667 1.71576889-1.14574222 3.43381333-2.28807111 4.57614222-3.43381333 3.43381333-2.85923555 8.01109333-5.72074667 13.15498667-9.72572445 32.60529778-22.30840889 47.47832889-14.87303111 72.64597333 1.14574222l3.43381333 2.28807111c10.86805333 6.86307555 13.72842667 8.01109333 14.87303112 8.01109334 1.14574222-0.57116445 6.86307555-4.00270222 12.01379555-6.86307556l8.57884445-5.72074666c29.17148445-18.30684445 49.19296-28.60259555 87.51900444-2.85923556 25.16878222 16.5888 25.16878222 16.5888 43.47335111 4.00270222 2.85923555-2.28807111 6.29304889-4.57614222 9.72572445-6.86307556 33.74990222-22.30840889 50.90986667-14.87303111 76.07637333-1.71576888l5.14844445 2.85923555c3.43381333 1.71576889 6.29304889 3.43381333 9.15114666 5.14844445 6.86307555 3.43381333 13.72842667 7.43765333 16.5888 8.01109333 2.28807111-0.57116445 9.15114667-4.57614222 15.44305778-8.57884445 5.72074667-3.43381333 13.15498667-7.43765333 22.30840889-12.58496 28.02801778-14.87303111 48.04835555-16.01649778 93.23747555 18.30684445 1.14574222 0.57116445 8.57884445-1.14574222 21.16494222-12.01379555 30.31608889-27.45685333 53.77024-14.29845333 70.92906667-4.57614223 12.58496 7.43765333 25.74108445 14.87303111 47.47832889 14.29845333 4.00270222 0 10.86805333-4.57614222 17.16224-8.57884444 14.87303111-10.29688889 39.46951111-26.88682667 71.50136889-5.72074666 35.46453333 23.45301333 37.18144 24.59534222 76.07637333-1.7157689 9.15114667-6.29304889 20.02147555-8.57884445 30.31608889-6.29304888 14.29845333 2.85923555 27.45685333 13.15498667 38.89834667 30.88952888 6.29304889 9.15114667 3.43381333 21.73610667-5.72074667 28.02801778-9.15114667 6.29304889-21.73610667 3.43381333-28.02801777-5.72074666-6.29304889-9.15114667-10.86805333-12.58496-12.58496-13.15498667 0 0 0 0 0 0-54.34368 36.03797333-73.78944 33.17873778-121.2677689 1.71576889-8.01109333-5.14844445-10.86805333-4.57614222-26.31224888 5.72074666-10.29688889 6.86307555-22.88071111 15.44305778-39.46951112 15.44305778-33.17873778 0-54.34368-12.01379555-68.06869333-20.02147555-14.87303111-8.57884445-14.87303111-8.57884445-23.45301333-0.57116445-37.75374222 34.31879111-63.49368889 21.73610667-72.64597334 14.29845334-32.03413333-24.02417778-36.60686222-21.73610667-49.76753777-14.87303112-8.57884445 4.57614222-15.44305778 8.57884445-21.16494223 12.01379556-31.46069333 18.30684445-38.89834667 18.30684445-71.50136888 0.57116444-2.85923555-1.71576889-5.72074667-2.85923555-9.15114667-5.14844444l-5.14844445-2.85923556c-18.87573333-10.29688889-18.87573333-10.29688889-34.3187911 0-3.43381333 2.28807111-6.29304889 4.57614222-9.15114667 6.2930489-29.17148445 20.02147555-45.18912 25.16878222-88.66247111-4.00270223-18.30684445-12.58496-18.87573333-12.01379555-43.47335112 3.43381333l-8.57884444 5.72074667c-25.16878222 16.01649778-37.75374222 20.02147555-70.35904-1.14574222l-4.00270222-2.28807111c-6.29304889-4.00270222-13.15498667-8.57884445-15.44305778-8.57884444 0 0-2.85923555 0.57116445-12.58496 6.86307555-4.57614222 2.85923555-8.01109333 5.72074667-11.43921778 8.01109333-11.43921778 9.72572445-20.59150222 13.72842667-29.74378666 13.72842667z" p-id="5852"></path><path d="M204.82844445 902.11441778c-12.58496 0-24.59534222-10.29688889-40.61411556-26.31224889-4.00270222-4.00270222-9.72572445-8.57884445-15.44305778-8.01109334-5.72074667 0.57116445-12.58496 6.86307555-18.30684444 16.01649778-5.72074667 9.72572445-18.30684445 12.58496-28.02801778 6.86307556-9.72572445-5.72074667-12.58496-18.30684445-6.86307556-28.02801778 12.58496-20.59150222 29.74378667-33.17873778 48.04835556-34.89336889 12.01379555-1.14574222 30.31608889 1.14574222 49.19296 20.02147556 4.57614222 5.14844445 8.57884445 8.57884445 11.43921778 10.86805333 0.57116445 0 0.57116445-0.57116445 0.57116444-0.57116444 2.85923555-2.85923555 6.86307555-6.29304889 11.43921778-9.72572445 29.74378667-24.02417778 45.18912-15.44305778 67.49752889 1.14574223l2.85923555 2.2880711c4.57614222 3.43381333 7.43765333 5.14844445 9.15114667 6.2930489 2.28807111-1.14574222 5.14844445-3.43381333 7.43765333-5.72074667l7.43765334-5.72074667c22.30840889-16.5888 42.90104889-32.03413333 80.08248888-2.85923556 12.58496 10.29688889 17.73112889 12.01379555 18.87573334 12.58496 2.28807111-1.14574222 6.86307555-5.14844445 10.86805333-8.01109333 2.28807111-2.28807111 5.14844445-4.57614222 8.57884445-6.86307555 30.31608889-23.45301333 47.47832889-16.01649778 69.7856-1.71576889l4.57614222 2.85923555c2.85923555 1.71576889 5.72074667 3.43381333 8.01109333 5.14844445 4.00270222 2.85923555 8.01109333 5.14844445 10.86805333 6.86307555 2.28807111-1.71576889 6.86307555-4.57614222 10.2968889-6.86307555 5.14844445-3.43381333 10.86805333-7.43765333 18.87573333-12.58496 28.02801778-18.30684445 48.04835555-14.29845333 82.94172444 17.16224 2.28807111-1.14574222 6.86307555-4.00270222 12.58496-10.29688889 28.60259555-30.31608889 52.05333333-14.29845333 66.3552-4.57614222 10.29688889 6.86307555 20.59150222 13.72842667 37.18144 13.72842666 1.71576889 0 8.01109333-5.14844445 11.43921778-8.01109333 12.01379555-9.72572445 36.60686222-29.17148445 66.3552-5.72074667 28.02801778 22.30840889 28.02801778 22.30840889 58.34638222-1.71576888 8.57884445-6.86307555 18.87573333-9.15114667 28.60259556-7.43765334 13.72842667 2.85923555 25.74108445 13.72842667 36.03797333 32.60529778 5.14844445 9.72572445 1.71576889 22.30840889-8.01109333 27.45685333-9.72572445 5.14844445-22.30840889 1.71576889-27.45685333-8.01109333-2.85923555-5.14844445-5.72074667-8.57884445-7.43765334-10.29688889-45.76142222 35.46453333-65.20945778 30.88952889-105.25013333-0.57116445-2.28807111-1.71576889-4.00270222-2.28807111-4.00270223-2.2880711-2.28807111 0-8.57884445 5.14844445-12.01379555 8.01109333-9.15114667 7.43765333-20.59150222 16.5888-36.60686222 16.5888 0 0-0.57116445 0-0.57116445 0-29.17148445 0-47.47832889-12.58496-60.06215111-20.59150223-2.85923555-1.71576889-6.86307555-4.57614222-8.57884444-5.72074666-1.14574222 0.57116445-2.28807111 1.71576889-4.57614223 4.57614222-35.46453333 38.32490667-60.63217778 20.59150222-68.06869333 14.29845334-24.59534222-21.73610667-26.31224889-20.59150222-35.46453333-14.29845334-7.43765333 4.57614222-13.15498667 8.57884445-17.73112889 12.01379556-28.02801778 19.44803555-36.60686222 19.44803555-65.78062222 1.14574222-2.28807111-1.71576889-4.57614222-2.85923555-7.43765333-4.57614222l-4.57614223-2.85923556c-4.57614222-2.85923555-10.29688889-6.86307555-12.58496-6.86307556 0 0-2.85923555 0.57116445-10.86805333 6.86307556-2.85923555 2.28807111-5.14844445 4.00270222-8.01109334 6.29304889-27.45685333 22.30840889-44.04679111 25.16878222-81.22595555-4.00270222-10.29688889-8.01109333-13.15498667-8.01109333-13.15498667-8.01109333-2.85923555 0.57116445-10.29688889 6.29304889-17.16224 11.43921777l-7.43765333 5.72074667c-24.02417778 17.73112889-37.18144 20.59150222-65.78062222-1.14574222l-3.43381333-2.28807112c-3.43381333-2.85923555-7.43765333-5.72074667-9.72572445-6.86307555-1.14574222 0.57116445-3.43381333 2.28807111-7.43765333 5.14844445-3.43381333 2.85923555-6.86307555 5.72074667-9.15114667 8.01109333-9.15114667 7.43765333-18.30684445 12.01379555-26.88682667 12.01379555z" p-id="5853"></path></svg>