<?xml version="1.0" standalone="no"?><!DOCTYPE svg PUBLIC "-//W3C//DTD SVG 1.1//EN" "http://www.w3.org/Graphics/SVG/1.1/DTD/svg11.dtd"><svg class="icon" viewBox="0 0 1024 1024" version="1.1" xmlns="http://www.w3.org/2000/svg" xmlns:xlink="http://www.w3.org/1999/xlink" width="200" height="200"><path fill="#FFFFFF" d="M549.888 281.6c-17.408 0-29.696 4.096-43.008 17.408-13.312 8.192-17.408 21.504-17.408 37.888 0 13.312 4.096 25.6 17.408 38.912 13.312 8.192 25.6 17.408 43.008 17.408s29.696-4.096 43.008-17.408c13.312-8.192 17.408-21.504 17.408-38.912 0-13.312-4.096-25.6-17.408-37.888C580.608 285.696 567.296 281.6 549.888 281.6zM567.296 699.392c-13.312 0-21.504 0-25.6-4.096-4.096-4.096-8.192-13.312-8.192-21.504 0-4.096 0-13.312 4.096-21.504 0-8.192 4.096-17.408 4.096-21.504l25.6-84.992c4.096-8.192 4.096-17.408 4.096-25.6s0-17.408 0-21.504c0-17.408-8.192-33.792-21.504-43.008-13.312-13.312-29.696-17.408-55.296-17.408-13.312 0-25.6 4.096-43.008 8.192-17.408 4.096-29.696 8.192-47.104 17.408l-8.192 25.6c4.096 0 8.192-4.096 17.408-4.096s13.312-4.096 21.504-4.096c13.312 0 21.504 4.096 25.6 4.096 4.096 4.096 8.192 13.312 8.192 21.504 0 4.096 0 13.312-4.096 21.504 0 8.192-4.096 17.408-4.096 21.504l-25.6 84.992c-4.096 8.192-4.096 17.408-4.096 25.6 0 8.192 0 13.312 0 21.504 0 17.408 8.192 29.696 21.504 43.008 13.312 13.312 29.696 17.408 55.296 17.408 17.408 0 29.696 0 43.008-4.096 13.312-4.096 25.6-8.192 47.104-17.408l8.192-25.6c-4.096 0-8.192 4.096-17.408 4.096S571.392 699.392 567.296 699.392zM507.904 55.296c-256 0-460.8 204.8-460.8 456.704s204.8 456.704 456.704 456.704 460.8-204.8 460.8-456.704S759.808 55.296 507.904 55.296zM507.904 929.792C277.504 929.792 89.088 742.4 89.088 512S277.504 94.208 507.904 94.208 925.696 281.6 925.696 512 738.304 929.792 507.904 929.792z"></path></svg>