<?xml version="1.0" standalone="no"?><!DOCTYPE svg PUBLIC "-//W3C//DTD SVG 1.1//EN" "http://www.w3.org/Graphics/SVG/1.1/DTD/svg11.dtd"><svg t="1563785480359" class="icon" viewBox="0 0 1024 1024" version="1.1" xmlns="http://www.w3.org/2000/svg" xmlns:xlink="http://www.w3.org/1999/xlink" width="200" height="200"><path fill="#FFFFFF" d="M611.02021484 752.06357422c-9.43505859-16.34326172-3.79335937-37.26298828 12.60087891-46.7296875 16.39423828-9.46582031 37.33505859-3.89091797 46.76923828 12.45234375l79.20966797 137.19638672c9.4359375 16.34326172 3.79423828 37.26386719-12.6 46.7305664-16.39423828 9.46582031-37.33505859 3.89003906-46.77011719-12.45322265l-79.20966797-137.19638672z" fill="#AFAFAF"></path><path fill="#FFFFFF" d="M274.4 169.01914062c-9.43505859-16.34238281-3.79423828-37.26386719 12.6-46.7305664 16.39423828-9.46582031 37.33505859-3.89003906 46.77011719 12.45234375l79.21054687 137.19638672c9.43505859 16.34238281 3.79335937 37.26386719-12.6008789 46.7296875-16.39423828 9.46582031-37.33417969 3.89003906-46.76923829-12.45234375l-79.21054687-137.19550781z" fill="#D1D1D1"></path><path fill="#FFFFFF" d="M271.93642578 611.02021484c16.34238281-9.43505859 37.26386719-3.79335937 46.7296875 12.60087891 9.46582031 16.39423828 3.89003906 37.33505859-12.45234375 46.76923828l-137.19550781 79.21054688c-16.34238281 9.43505859-37.26474609 3.79335937-46.7296875-12.60087891-9.46582031-16.39423828-3.89003906-37.33505859 12.45234375-46.76923828l137.19550781-79.21054688z" fill="#9D9D9D"></path><path fill="#FFFFFF" d="M854.98085938 274.4c16.34238281-9.4359375 37.26386719-3.79423828 46.7305664 12.6 9.46582031 16.39511719 3.89003906 37.33505859-12.45322266 46.77011719l-137.19638671 79.20966797c-16.34238281 9.43505859-37.26298828 3.79335937-46.7296875-12.60087891-9.46582031-16.39511719-3.89003906-37.33505859 12.45234375-46.76923828l137.19638672-79.20966797z" fill="#C2C2C2"></path><path fill="#FFFFFF" d="M353.60966797 717.78623047c9.43417969-16.34326172 30.375-21.91816406 46.76923828-12.45234375 16.39423828 9.46669922 22.0359375 30.38642578 12.6 46.7296875l-79.20966797 137.19638672c-9.43417969 16.34326172-30.375 21.91816406-46.76923828 12.45322265-16.39423828-9.46669922-22.0359375-30.38730469-12.6-46.7305664l79.20966797-137.19638672z" fill="#A3A3A3"></path><path fill="#FFFFFF" d="M690.22988281 134.74179687c9.43505859-16.34238281 30.37587891-21.91816406 46.77011719-12.45322265 16.39423828 9.46669922 22.0359375 30.38818359 12.60087891 46.7296875l-79.20966797 137.19638672c-9.43505859 16.34238281-30.37587891 21.91816406-46.77011719 12.45234375-16.39423828-9.46669922-22.0359375-30.38730469-12.60087891-46.7296875l79.20966797-137.19550781z" fill="#C8C8C8"></path><path fill="#FFFFFF" d="M306.21376953 353.60966797c16.34238281 9.43505859 21.91816406 30.375 12.45234375 46.76923828s-30.38730469 22.0359375-46.7296875 12.6L134.74091797 333.76923828C118.39853516 324.33417969 112.82275391 303.39423828 122.28857422 287c9.46669922-16.39423828 30.38730469-22.0359375 46.7296875-12.6l137.19550781 79.20966797z" fill="#949494"></path><path fill="#FFFFFF" d="M889.25820313 690.22988281c16.34326172 9.43417969 21.91816406 30.37587891 12.45322265 46.77011719-9.46669922 16.39423828-30.38730469 22.0359375-46.73056641 12.60087891l-137.19638671-79.20966797C701.44296875 660.95615234 695.8671875 640.01533203 705.33300781 623.62109375c9.46669922-16.39423828 30.38730469-22.0359375 46.7296875-12.60087891l137.19550781 79.20966797z" fill="#B6B6B6"></path><path fill="#FFFFFF" d="M254.58857422 477.72265625c18.87099609 0 34.16923828 15.34658203 34.16923828 34.27734375s-15.29824219 34.27734375-34.16923828 34.27734375H96.16923828C77.29824219 546.27734375 62 530.93076172 62 512s15.29824219-34.27734375 34.16923828-34.27734375h158.41933594z" fill="#999999"></path><path fill="#FFFFFF" d="M927.83076172 477.72265625c18.87099609 0 34.16923828 15.34658203 34.16923828 34.27734375s-15.29824219 34.27734375-34.16923828 34.27734375H769.41142578c-18.87099609 0-34.16923828-15.34658203-34.16923828-34.27734375s15.29824219-34.27734375 34.16923828-34.27734375h158.41933594z" fill="#BBBBBB"></path><path fill="#FFFFFF" d="M546.27734375 254.58857422c0 18.87099609-15.34658203 34.16923828-34.27734375 34.16923828s-34.27734375-15.29824219-34.27734375-34.16923828V96.16923828c0-18.87099609 15.34658203-34.16923828 34.27734375-34.16923828s34.27734375 15.29824219 34.27734375 34.16923828v158.41933594z" fill="#CDCDCD"></path><path fill="#FFFFFF" d="M546.27734375 927.83076172c0 18.87099609-15.34658203 34.16923828-34.27734375 34.16923828s-34.27734375-15.29824219-34.27734375-34.16923828V769.41142578c0-18.87099609 15.34658203-34.16923828 34.27734375-34.16923828s34.27734375 15.29824219 34.27734375 34.16923828v158.41933594z" fill="#A9A9A9"></path></svg>