<?xml version="1.0" standalone="no"?><!DOCTYPE svg PUBLIC "-//W3C//DTD SVG 1.1//EN" "http://www.w3.org/Graphics/SVG/1.1/DTD/svg11.dtd"><svg t="1563785456930" class="icon" viewBox="0 0 1024 1024" version="1.1" xmlns="http://www.w3.org/2000/svg" xmlns:xlink="http://www.w3.org/1999/xlink" width="200" height="200"><path fill="#FFFFFF" d="M513.45581281 88.46155906c-232.77465844 0-421.482555 188.71844906-421.482555 421.52380688 0 232.77753656 188.70789562 421.49502656 421.482555 421.49502656 232.766025 0 421.53627844-188.71844906 421.53627844-421.49502656C934.99305031 277.18000813 746.22183781 88.46155906 513.45581281 88.46155906zM513.56709781 892.31878344c-211.09335844 0-382.21541812-171.128775-382.21541812-382.22501157S302.47373844 127.86396406 513.56709781 127.86396406c211.10007375 0 382.22213344 171.13261219 382.22213344 382.22884875S724.66717156 892.31878344 513.56709781 892.31878344z"></path><path fill="#FFFFFF" d="M376.22085781 457.24800219c0 7.24404844-8.62934906 13.12102406-19.27429219 13.12102406l0 0c-10.63726781 0-19.26661688-5.87697563-19.26661687-13.12102406L337.67994875 347.34203844c0-7.24404844 8.62934906-13.12102406 19.26661688-13.12102407l0 0c10.64494313 0 19.27429219 5.87697563 19.27429218 13.12102407L376.22085781 457.24800219z"></path><path fill="#FFFFFF" d="M690.41647344 457.24800219c0 7.24404844-8.63030906 13.12102406-19.27525125 13.12102406l0 0c-10.63726781 0-19.26757687-5.87697563-19.26757688-13.12102406L651.87364531 347.34203844c0-7.24404844 8.63030906-13.12102406 19.26757688-13.12102407l0 0c10.64494313 0 19.27525125 5.87697563 19.27525125 13.12102407L690.41647344 457.24800219z"></path><path fill="#FFFFFF" d="M513.482675 516.6576425c-81.748095 0-148.02475875 66.27666469-148.02475875 148.02475875 0 81.74905406 66.27666469 148.02571875 148.02475875 148.02571875 81.74905406 0 148.02667781-66.27666469 148.02667781-148.02571875C661.50935281 582.93430625 595.23172906 516.6576425 513.482675 516.6576425zM513.47691875 776.81789375c-61.924095 0-112.12877625-50.20468125-112.12877625-112.13261437 0-61.92697312 50.20468125-112.1354925 112.12877625-112.1354925 61.93081125 0 112.1354925 50.20851844 112.1354925 112.1354925C625.61241125 726.6132125 575.40773 776.81789375 513.47691875 776.81789375z"></path></svg>